<mxfile host="app.diagrams.net" modified="2021-09-30T08:31:34.305Z" agent="5.0 (Windows NT 10.0; Win64; x64) AppleWebKit/537.36 (KHTML, like Gecko) Chrome/94.0.4606.61 Safari/537.36 Edg/94.0.992.31" etag="GMofN8S9o92sWNvlz-UB" version="15.3.8" type="github">
  <diagram id="kgpKYQtTHZ0yAKxKKP6v" name="Page-1">
    <mxGraphModel dx="1185" dy="662" grid="0" gridSize="10" guides="1" tooltips="1" connect="1" arrows="1" fold="1" page="1" pageScale="1" pageWidth="850" pageHeight="1100" math="0" shadow="0">
      <root>
        <mxCell id="0" />
        <mxCell id="1" parent="0" />
        <mxCell id="3nuBFxr9cyL0pnOWT2aG-1" value="Browser" style="shape=umlLifeline;perimeter=lifelinePerimeter;container=1;collapsible=0;recursiveResize=0;rounded=0;shadow=0;strokeWidth=1;gradientColor=#97d077;fillColor=#d5e8d4;strokeColor=#82b366;" parent="1" vertex="1">
          <mxGeometry x="100" y="80" width="120" height="560" as="geometry" />
        </mxCell>
        <mxCell id="3nuBFxr9cyL0pnOWT2aG-2" value="" style="points=[];perimeter=orthogonalPerimeter;rounded=0;shadow=0;strokeWidth=1;gradientColor=#7ea6e0;fillColor=#dae8fc;strokeColor=#6c8ebf;" parent="3nuBFxr9cyL0pnOWT2aG-1" vertex="1">
          <mxGeometry x="55" y="80" width="10" height="20" as="geometry" />
        </mxCell>
        <mxCell id="kny42V9FG2QdXk21hUDw-18" value="" style="points=[];perimeter=orthogonalPerimeter;rounded=0;shadow=0;strokeWidth=1;gradientColor=#7ea6e0;fillColor=#dae8fc;strokeColor=#6c8ebf;" vertex="1" parent="3nuBFxr9cyL0pnOWT2aG-1">
          <mxGeometry x="55" y="540" width="10" height="20" as="geometry" />
        </mxCell>
        <mxCell id="kny42V9FG2QdXk21hUDw-13" value="" style="points=[];perimeter=orthogonalPerimeter;rounded=0;shadow=0;strokeWidth=1;gradientColor=#7ea6e0;fillColor=#dae8fc;strokeColor=#6c8ebf;" vertex="1" parent="3nuBFxr9cyL0pnOWT2aG-1">
          <mxGeometry x="55" y="350" width="10" height="20" as="geometry" />
        </mxCell>
        <mxCell id="kny42V9FG2QdXk21hUDw-12" value="" style="points=[];perimeter=orthogonalPerimeter;rounded=0;shadow=0;strokeWidth=1;gradientColor=#7ea6e0;fillColor=#dae8fc;strokeColor=#6c8ebf;" vertex="1" parent="3nuBFxr9cyL0pnOWT2aG-1">
          <mxGeometry x="55" y="180" width="10" height="20" as="geometry" />
        </mxCell>
        <mxCell id="3nuBFxr9cyL0pnOWT2aG-5" value="MiFi HTTP Server" style="shape=umlLifeline;perimeter=lifelinePerimeter;container=1;collapsible=0;recursiveResize=0;rounded=0;shadow=0;strokeWidth=1;gradientColor=#97d077;fillColor=#d5e8d4;strokeColor=#82b366;" parent="1" vertex="1">
          <mxGeometry x="300" y="80" width="120" height="560" as="geometry" />
        </mxCell>
        <mxCell id="kny42V9FG2QdXk21hUDw-3" value="" style="points=[];perimeter=orthogonalPerimeter;rounded=0;shadow=0;strokeWidth=1;gradientColor=#7ea6e0;fillColor=#dae8fc;strokeColor=#6c8ebf;" vertex="1" parent="3nuBFxr9cyL0pnOWT2aG-5">
          <mxGeometry x="55" y="130" width="10" height="20" as="geometry" />
        </mxCell>
        <mxCell id="kny42V9FG2QdXk21hUDw-25" value="" style="points=[];perimeter=orthogonalPerimeter;rounded=0;shadow=0;strokeWidth=1;gradientColor=#7ea6e0;fillColor=#dae8fc;strokeColor=#6c8ebf;" vertex="1" parent="3nuBFxr9cyL0pnOWT2aG-5">
          <mxGeometry x="55" y="230" width="10" height="20" as="geometry" />
        </mxCell>
        <mxCell id="kny42V9FG2QdXk21hUDw-23" value="" style="points=[];perimeter=orthogonalPerimeter;rounded=0;shadow=0;strokeWidth=1;gradientColor=#7ea6e0;fillColor=#dae8fc;strokeColor=#6c8ebf;" vertex="1" parent="3nuBFxr9cyL0pnOWT2aG-5">
          <mxGeometry x="55" y="310" width="10" height="20" as="geometry" />
        </mxCell>
        <mxCell id="kny42V9FG2QdXk21hUDw-29" value="" style="points=[];perimeter=orthogonalPerimeter;rounded=0;shadow=0;strokeWidth=1;gradientColor=#7ea6e0;fillColor=#dae8fc;strokeColor=#6c8ebf;" vertex="1" parent="3nuBFxr9cyL0pnOWT2aG-5">
          <mxGeometry x="55" y="400" width="10" height="20" as="geometry" />
        </mxCell>
        <mxCell id="kny42V9FG2QdXk21hUDw-30" value="" style="points=[];perimeter=orthogonalPerimeter;rounded=0;shadow=0;strokeWidth=1;gradientColor=#7ea6e0;fillColor=#dae8fc;strokeColor=#6c8ebf;" vertex="1" parent="3nuBFxr9cyL0pnOWT2aG-5">
          <mxGeometry x="55" y="480" width="10" height="20" as="geometry" />
        </mxCell>
        <mxCell id="kny42V9FG2QdXk21hUDw-2" value="MiFi LTE Module" style="shape=umlLifeline;perimeter=lifelinePerimeter;container=1;collapsible=0;recursiveResize=0;rounded=0;shadow=0;strokeWidth=1;gradientColor=#97d077;fillColor=#d5e8d4;strokeColor=#82b366;" vertex="1" parent="1">
          <mxGeometry x="500" y="80" width="120" height="560" as="geometry" />
        </mxCell>
        <mxCell id="kny42V9FG2QdXk21hUDw-20" value="" style="points=[];perimeter=orthogonalPerimeter;rounded=0;shadow=0;strokeWidth=1;gradientColor=#7ea6e0;fillColor=#dae8fc;strokeColor=#6c8ebf;" vertex="1" parent="kny42V9FG2QdXk21hUDw-2">
          <mxGeometry x="55" y="270" width="10" height="20" as="geometry" />
        </mxCell>
        <mxCell id="kny42V9FG2QdXk21hUDw-17" value="" style="endArrow=classic;html=1;gradientColor=#7ea6e0;fillColor=#dae8fc;strokeColor=#6c8ebf;exitX=0.493;exitY=0.534;exitDx=0;exitDy=0;exitPerimeter=0;" edge="1" parent="kny42V9FG2QdXk21hUDw-2" source="kny42V9FG2QdXk21hUDw-2">
          <mxGeometry width="50" height="50" relative="1" as="geometry">
            <mxPoint x="55.00000000000023" y="300.0000000000001" as="sourcePoint" />
            <mxPoint x="-140" y="300" as="targetPoint" />
            <Array as="points" />
          </mxGeometry>
        </mxCell>
        <mxCell id="kny42V9FG2QdXk21hUDw-32" value="" style="points=[];perimeter=orthogonalPerimeter;rounded=0;shadow=0;strokeWidth=1;gradientColor=#7ea6e0;fillColor=#dae8fc;strokeColor=#6c8ebf;" vertex="1" parent="kny42V9FG2QdXk21hUDw-2">
          <mxGeometry x="55" y="440" width="10" height="20" as="geometry" />
        </mxCell>
        <mxCell id="kny42V9FG2QdXk21hUDw-11" value="访问MiFi Web" style="text;html=1;align=center;verticalAlign=middle;resizable=0;points=[];autosize=1;strokeColor=none;fillColor=none;" vertex="1" parent="1">
          <mxGeometry x="170" y="160" width="90" height="20" as="geometry" />
        </mxCell>
        <mxCell id="kny42V9FG2QdXk21hUDw-8" value="" style="endArrow=classic;html=1;entryX=0.514;entryY=0.604;entryDx=0;entryDy=0;entryPerimeter=0;gradientColor=#7ea6e0;fillColor=#dae8fc;strokeColor=#6c8ebf;" edge="1" parent="1" target="3nuBFxr9cyL0pnOWT2aG-1">
          <mxGeometry width="50" height="50" relative="1" as="geometry">
            <mxPoint x="357" y="420" as="sourcePoint" />
            <mxPoint x="160" y="410" as="targetPoint" />
            <Array as="points" />
          </mxGeometry>
        </mxCell>
        <mxCell id="kny42V9FG2QdXk21hUDw-6" value="" style="endArrow=classic;html=1;exitX=0.5;exitY=0.4;exitDx=0;exitDy=0;exitPerimeter=0;entryX=0.5;entryY=0.4;entryDx=0;entryDy=0;entryPerimeter=0;gradientColor=#7ea6e0;fillColor=#dae8fc;strokeColor=#6c8ebf;" edge="1" parent="1">
          <mxGeometry width="50" height="50" relative="1" as="geometry">
            <mxPoint x="160" y="200.0000000000001" as="sourcePoint" />
            <mxPoint x="360" y="200.0000000000001" as="targetPoint" />
            <Array as="points" />
          </mxGeometry>
        </mxCell>
        <mxCell id="kny42V9FG2QdXk21hUDw-9" value="返回Web页面" style="edgeLabel;html=1;align=center;verticalAlign=middle;resizable=0;points=[];" vertex="1" connectable="0" parent="kny42V9FG2QdXk21hUDw-6">
          <mxGeometry x="-0.0801" y="2" relative="1" as="geometry">
            <mxPoint x="159" y="22" as="offset" />
          </mxGeometry>
        </mxCell>
        <mxCell id="kny42V9FG2QdXk21hUDw-10" value="输入USSD命令" style="text;html=1;align=center;verticalAlign=middle;resizable=0;points=[];autosize=1;strokeColor=none;fillColor=none;" vertex="1" parent="1">
          <mxGeometry x="170" y="260" width="100" height="20" as="geometry" />
        </mxCell>
        <mxCell id="kny42V9FG2QdXk21hUDw-14" value="选择USSD菜单" style="text;html=1;align=center;verticalAlign=middle;resizable=0;points=[];autosize=1;strokeColor=none;fillColor=none;" vertex="1" parent="1">
          <mxGeometry x="170" y="430" width="100" height="20" as="geometry" />
        </mxCell>
        <mxCell id="kny42V9FG2QdXk21hUDw-7" value="" style="endArrow=classic;html=1;exitX=0.5;exitY=0.392;exitDx=0;exitDy=0;exitPerimeter=0;gradientColor=#7ea6e0;fillColor=#dae8fc;strokeColor=#6c8ebf;" edge="1" parent="1" source="3nuBFxr9cyL0pnOWT2aG-1">
          <mxGeometry width="50" height="50" relative="1" as="geometry">
            <mxPoint x="165.00000000000009" y="300" as="sourcePoint" />
            <mxPoint x="360" y="300" as="targetPoint" />
            <Array as="points" />
          </mxGeometry>
        </mxCell>
        <mxCell id="kny42V9FG2QdXk21hUDw-15" value="" style="endArrow=classic;html=1;exitX=0.493;exitY=0.469;exitDx=0;exitDy=0;exitPerimeter=0;entryX=0.486;entryY=0.467;entryDx=0;entryDy=0;entryPerimeter=0;gradientColor=#7ea6e0;fillColor=#dae8fc;strokeColor=#6c8ebf;startArrow=none;" edge="1" parent="1" source="3nuBFxr9cyL0pnOWT2aG-5" target="kny42V9FG2QdXk21hUDw-2">
          <mxGeometry width="50" height="50" relative="1" as="geometry">
            <mxPoint x="360" y="369.17" as="sourcePoint" />
            <mxPoint x="560" y="369.17" as="targetPoint" />
            <Array as="points" />
          </mxGeometry>
        </mxCell>
        <mxCell id="kny42V9FG2QdXk21hUDw-19" value="" style="endArrow=classic;html=1;entryX=0.528;entryY=0.463;entryDx=0;entryDy=0;entryPerimeter=0;gradientColor=#7ea6e0;fillColor=#dae8fc;strokeColor=#6c8ebf;" edge="1" parent="1">
          <mxGeometry width="50" height="50" relative="1" as="geometry">
            <mxPoint x="357.2600000000002" y="239.9999999999999" as="sourcePoint" />
            <mxPoint x="160" y="239.9999999999999" as="targetPoint" />
            <Array as="points" />
          </mxGeometry>
        </mxCell>
        <mxCell id="kny42V9FG2QdXk21hUDw-21" value="执行USSD命令，返回菜单" style="edgeLabel;html=1;align=center;verticalAlign=middle;resizable=0;points=[];" vertex="1" connectable="0" parent="1">
          <mxGeometry x="639.9966666666668" y="350.0000000000001" as="geometry">
            <mxPoint x="4" y="4" as="offset" />
          </mxGeometry>
        </mxCell>
        <mxCell id="kny42V9FG2QdXk21hUDw-22" value="" style="endArrow=classic;html=1;exitX=0.505;exitY=0.53;exitDx=0;exitDy=0;exitPerimeter=0;entryX=0.505;entryY=0.53;entryDx=0;entryDy=0;entryPerimeter=0;gradientColor=#7ea6e0;fillColor=#dae8fc;strokeColor=#6c8ebf;" edge="1" parent="1">
          <mxGeometry width="50" height="50" relative="1" as="geometry">
            <mxPoint x="160.00000000000009" y="469.9999999999999" as="sourcePoint" />
            <mxPoint x="360.0000000000001" y="469.9999999999999" as="targetPoint" />
            <Array as="points" />
          </mxGeometry>
        </mxCell>
        <mxCell id="kny42V9FG2QdXk21hUDw-26" value="提取USSD命令，执行AT指令" style="edgeLabel;html=1;align=center;verticalAlign=middle;resizable=0;points=[];" vertex="1" connectable="0" parent="1">
          <mxGeometry x="449.9966666666667" y="290.0000000000001" as="geometry">
            <mxPoint y="30" as="offset" />
          </mxGeometry>
        </mxCell>
        <mxCell id="kny42V9FG2QdXk21hUDw-28" value="退出Web" style="text;html=1;align=center;verticalAlign=middle;resizable=0;points=[];autosize=1;strokeColor=none;fillColor=none;fontSize=11;" vertex="1" parent="1">
          <mxGeometry x="170" y="620" width="60" height="20" as="geometry" />
        </mxCell>
        <mxCell id="kny42V9FG2QdXk21hUDw-31" value="" style="endArrow=classic;html=1;exitX=0.505;exitY=0.501;exitDx=0;exitDy=0;exitPerimeter=0;entryX=0.497;entryY=0.498;entryDx=0;entryDy=0;entryPerimeter=0;gradientColor=#7ea6e0;fillColor=#dae8fc;strokeColor=#6c8ebf;startArrow=none;" edge="1" parent="1">
          <mxGeometry width="50" height="50" relative="1" as="geometry">
            <mxPoint x="360.3799999999999" y="511.56000000000006" as="sourcePoint" />
            <mxPoint x="559.6199999999999" y="510" as="targetPoint" />
            <Array as="points" />
          </mxGeometry>
        </mxCell>
        <mxCell id="kny42V9FG2QdXk21hUDw-33" value="执行USSD业务，返回结果" style="edgeLabel;html=1;align=center;verticalAlign=middle;resizable=0;points=[];" vertex="1" connectable="0" parent="1">
          <mxGeometry x="639.9966666666668" y="520.0000000000001" as="geometry">
            <mxPoint x="4" y="4" as="offset" />
          </mxGeometry>
        </mxCell>
        <mxCell id="kny42V9FG2QdXk21hUDw-34" value="" style="endArrow=classic;html=1;gradientColor=#7ea6e0;fillColor=#dae8fc;strokeColor=#6c8ebf;exitX=0.507;exitY=0.575;exitDx=0;exitDy=0;exitPerimeter=0;" edge="1" parent="1">
          <mxGeometry width="50" height="50" relative="1" as="geometry">
            <mxPoint x="561.55" y="549" as="sourcePoint" />
            <mxPoint x="360" y="550" as="targetPoint" />
            <Array as="points" />
          </mxGeometry>
        </mxCell>
        <mxCell id="kny42V9FG2QdXk21hUDw-35" value="解析USSD菜单原始格式为UTF-8" style="edgeLabel;html=1;align=center;verticalAlign=middle;resizable=0;points=[];" vertex="1" connectable="0" parent="1">
          <mxGeometry x="459.9966666666667" y="370.0000000000001" as="geometry">
            <mxPoint y="30" as="offset" />
          </mxGeometry>
        </mxCell>
        <mxCell id="kny42V9FG2QdXk21hUDw-36" value="" style="endArrow=classic;html=1;entryX=0.488;entryY=0.657;entryDx=0;entryDy=0;entryPerimeter=0;gradientColor=#7ea6e0;fillColor=#dae8fc;strokeColor=#6c8ebf;exitX=0.496;exitY=0.911;exitDx=0;exitDy=0;exitPerimeter=0;" edge="1" parent="1" source="3nuBFxr9cyL0pnOWT2aG-5">
          <mxGeometry width="50" height="50" relative="1" as="geometry">
            <mxPoint x="357.96" y="590" as="sourcePoint" />
            <mxPoint x="159.99999999999997" y="591.6400000000001" as="targetPoint" />
            <Array as="points" />
          </mxGeometry>
        </mxCell>
        <mxCell id="kny42V9FG2QdXk21hUDw-37" value="提取USSD菜单选项，执行AT指令" style="edgeLabel;html=1;align=center;verticalAlign=middle;resizable=0;points=[];" vertex="1" connectable="0" parent="1">
          <mxGeometry x="459.9966666666667" y="460.0000000000001" as="geometry">
            <mxPoint y="30" as="offset" />
          </mxGeometry>
        </mxCell>
        <mxCell id="kny42V9FG2QdXk21hUDw-38" value="解析USSD结果为UTF-8格式" style="edgeLabel;html=1;align=center;verticalAlign=middle;resizable=0;points=[];" vertex="1" connectable="0" parent="1">
          <mxGeometry x="463.9966666666668" y="569.0000000000001" as="geometry">
            <mxPoint x="-17" y="1" as="offset" />
          </mxGeometry>
        </mxCell>
      </root>
    </mxGraphModel>
  </diagram>
</mxfile>
